<svg xmlns="http://www.w3.org/2000/svg" width="32" height="32" viewBox="0 0 32 32">
    <g fill="none" fill-rule="evenodd">
        <path fill="#FFF" d="M-1136-52H304v274h-1440z"/>
        <g fill="#757575">
            <path d="M15.958 0C7.144 0 0 7.14 0 15.948c0 8.807 7.144 15.948 15.958 15.948 8.81 0 15.954-7.14 15.954-15.948C31.912 7.139 24.768 0 15.958 0m0 1.333c8.062 0 14.62 6.556 14.62 14.615 0 8.059-6.558 14.615-14.62 14.615-8.064 0-14.625-6.556-14.625-14.615 0-8.059 6.56-14.615 14.625-14.615"/>
            <path d="M13.45 25.25h3.835v-9.302h2.961l.364-3.278h-3.325v-2.038c0-.724.302-.788.666-.788h2.608V6.656l-3.082-.011c-3.42 0-4.027 2.378-4.027 3.9v2.125h-2.148v3.278h2.148v9.303z"/>
        </g>
    </g>
</svg>
