<svg xmlns="http://www.w3.org/2000/svg" width="32" height="32" viewBox="0 0 32 32">
    <g fill="none" fill-rule="evenodd">
        <path fill="#FFF" d="M-1264-52H176v274h-1440z"/>
        <g fill="#757575">
            <path d="M15.957 0C7.145 0 0 7.14 0 15.948c0 8.807 7.145 15.948 15.957 15.948 8.813 0 15.958-7.14 15.958-15.948C31.915 7.139 24.77 0 15.957 0m0 1.333c8.064 0 14.624 6.556 14.624 14.615 0 8.059-6.56 14.615-14.624 14.615S1.333 24.007 1.333 15.948c0-8.059 6.56-14.615 14.624-14.615"/>
            <path d="M9.328 12.897c.004.874.02 1.754.026 2.633 0 .946.003 1.892.003 2.837 0 5.297 4.738 6.798 5.647 6.798.91 0 4.47.086 5.112.086.644 0 2.488-.173 2.488-2.07 0-1.896-1.308-2.577-2.192-2.577h-3.535c-2.515 0-2.917-1.131-2.917-2.179 0-.498.032-1.318.06-2.322h5.908c.884 0 2.569-.368 2.569-2.012 0-1.641-.777-2.717-1.82-2.717h-6.582c-.007-2.37-.159-4.729-2.436-4.729-.941 0-1.706.392-2.028 1.369-.423 1.283-.311 2.783-.306 4.12.002.253.003.508.003.763"/>
        </g>
    </g>
</svg>
